<svg width="1440" height="505" viewBox="0 0 1440 505" fill="none" xmlns="http://www.w3.org/2000/svg">
<path d="M0 0H1440L1421.5 75.5013L1125.5 308.787L712.5 464.763L278.5 505L121 297.484L13.5 75.5013L0 0Z" fill="#9B51E0"/>
<path d="M272.578 233.055H259.078V247H252.047V212.875H274.266V218.57H259.078V227.383H272.578V233.055ZM304.172 212.875V235.352C304.172 239.086 303 242.039 300.656 244.211C298.328 246.383 295.141 247.469 291.094 247.469C287.109 247.469 283.945 246.414 281.602 244.305C279.258 242.195 278.062 239.297 278.016 235.609V212.875H285.047V235.398C285.047 237.633 285.578 239.266 286.641 240.297C287.719 241.312 289.203 241.82 291.094 241.82C295.047 241.82 297.055 239.742 297.117 235.586V212.875H304.172ZM316.969 241.352H331.898V247H309.938V212.875H316.969V241.352ZM342.984 241.352H357.914V247H335.953V212.875H342.984V241.352ZM391.617 238.047C391.617 236.719 391.148 235.703 390.211 235C389.273 234.281 387.586 233.531 385.148 232.75C382.711 231.953 380.781 231.172 379.359 230.406C375.484 228.312 373.547 225.492 373.547 221.945C373.547 220.102 374.062 218.461 375.094 217.023C376.141 215.57 377.633 214.438 379.57 213.625C381.523 212.812 383.711 212.406 386.133 212.406C388.57 212.406 390.742 212.852 392.648 213.742C394.555 214.617 396.031 215.859 397.078 217.469C398.141 219.078 398.672 220.906 398.672 222.953H391.641C391.641 221.391 391.148 220.18 390.164 219.32C389.18 218.445 387.797 218.008 386.016 218.008C384.297 218.008 382.961 218.375 382.008 219.109C381.055 219.828 380.578 220.781 380.578 221.969C380.578 223.078 381.133 224.008 382.242 224.758C383.367 225.508 385.016 226.211 387.188 226.867C391.188 228.07 394.102 229.562 395.93 231.344C397.758 233.125 398.672 235.344 398.672 238C398.672 240.953 397.555 243.273 395.32 244.961C393.086 246.633 390.078 247.469 386.297 247.469C383.672 247.469 381.281 246.992 379.125 246.039C376.969 245.07 375.32 243.75 374.18 242.078C373.055 240.406 372.492 238.469 372.492 236.266H379.547C379.547 240.031 381.797 241.914 386.297 241.914C387.969 241.914 389.273 241.578 390.211 240.906C391.148 240.219 391.617 239.266 391.617 238.047ZM429.141 218.57H418.688V247H411.656V218.57H401.344V212.875H429.141V218.57ZM449.625 239.969H437.297L434.953 247H427.477L440.18 212.875H446.695L459.469 247H451.992L449.625 239.969ZM439.195 234.273H447.727L443.438 221.5L439.195 234.273ZM488.93 235.633C488.664 239.305 487.305 242.195 484.852 244.305C482.414 246.414 479.195 247.469 475.195 247.469C470.82 247.469 467.375 246 464.859 243.062C462.359 240.109 461.109 236.062 461.109 230.922V228.836C461.109 225.555 461.688 222.664 462.844 220.164C464 217.664 465.648 215.75 467.789 214.422C469.945 213.078 472.445 212.406 475.289 212.406C479.227 212.406 482.398 213.461 484.805 215.57C487.211 217.68 488.602 220.641 488.977 224.453H481.945C481.773 222.25 481.156 220.656 480.094 219.672C479.047 218.672 477.445 218.172 475.289 218.172C472.945 218.172 471.188 219.016 470.016 220.703C468.859 222.375 468.266 224.977 468.234 228.508V231.086C468.234 234.773 468.789 237.469 469.898 239.172C471.023 240.875 472.789 241.727 475.195 241.727C477.367 241.727 478.984 241.234 480.047 240.25C481.125 239.25 481.742 237.711 481.898 235.633H488.93ZM504.234 233.312L500.578 237.25V247H493.547V212.875H500.578V228.344L503.672 224.102L512.367 212.875H521.016L508.898 228.039L521.367 247H513L504.234 233.312ZM252.047 303V268.875H262.547C265.547 268.875 268.227 269.555 270.586 270.914C272.961 272.258 274.812 274.18 276.141 276.68C277.469 279.164 278.133 281.992 278.133 285.164V286.734C278.133 289.906 277.477 292.727 276.164 295.195C274.867 297.664 273.031 299.578 270.656 300.938C268.281 302.297 265.602 302.984 262.617 303H252.047ZM259.078 274.57V297.352H262.477C265.227 297.352 267.328 296.453 268.781 294.656C270.234 292.859 270.977 290.289 271.008 286.945V285.141C271.008 281.672 270.289 279.047 268.852 277.266C267.414 275.469 265.312 274.57 262.547 274.57H259.078ZM303.797 288.211H290.297V297.352H306.141V303H283.266V268.875H306.094V274.57H290.297V282.703H303.797V288.211ZM322.875 294.539L330.609 268.875H338.438L326.555 303H319.219L307.383 268.875H315.188L322.875 294.539ZM362.203 288.211H348.703V297.352H364.547V303H341.672V268.875H364.5V274.57H348.703V282.703H362.203V288.211ZM375.703 297.352H390.633V303H368.672V268.875H375.703V297.352ZM421.219 286.711C421.219 290.07 420.625 293.016 419.438 295.547C418.25 298.078 416.547 300.031 414.328 301.406C412.125 302.781 409.594 303.469 406.734 303.469C403.906 303.469 401.383 302.789 399.164 301.43C396.945 300.07 395.227 298.133 394.008 295.617C392.789 293.086 392.172 290.18 392.156 286.898V285.211C392.156 281.852 392.758 278.898 393.961 276.352C395.18 273.789 396.891 271.828 399.094 270.469C401.312 269.094 403.844 268.406 406.688 268.406C409.531 268.406 412.055 269.094 414.258 270.469C416.477 271.828 418.188 273.789 419.391 276.352C420.609 278.898 421.219 281.844 421.219 285.188V286.711ZM414.094 285.164C414.094 281.586 413.453 278.867 412.172 277.008C410.891 275.148 409.062 274.219 406.688 274.219C404.328 274.219 402.508 275.141 401.227 276.984C399.945 278.812 399.297 281.5 399.281 285.047V286.711C399.281 290.195 399.922 292.898 401.203 294.82C402.484 296.742 404.328 297.703 406.734 297.703C409.094 297.703 410.906 296.781 412.172 294.938C413.438 293.078 414.078 290.375 414.094 286.828V285.164ZM433.359 290.977V303H426.328V268.875H439.641C442.203 268.875 444.453 269.344 446.391 270.281C448.344 271.219 449.844 272.555 450.891 274.289C451.938 276.008 452.461 277.969 452.461 280.172C452.461 283.516 451.312 286.156 449.016 288.094C446.734 290.016 443.57 290.977 439.523 290.977H433.359ZM433.359 285.281H439.641C441.5 285.281 442.914 284.844 443.883 283.969C444.867 283.094 445.359 281.844 445.359 280.219C445.359 278.547 444.867 277.195 443.883 276.164C442.898 275.133 441.539 274.602 439.805 274.57H433.359V285.281ZM477.844 288.211H464.344V297.352H480.188V303H457.312V268.875H480.141V274.57H464.344V282.703H477.844V288.211ZM496.945 290.508H491.344V303H484.312V268.875H496.992C501.023 268.875 504.133 269.773 506.32 271.57C508.508 273.367 509.602 275.906 509.602 279.188C509.602 281.516 509.094 283.461 508.078 285.023C507.078 286.57 505.555 287.805 503.508 288.727L510.891 302.672V303H503.344L496.945 290.508ZM491.344 284.812H497.016C498.781 284.812 500.148 284.367 501.117 283.477C502.086 282.57 502.57 281.328 502.57 279.75C502.57 278.141 502.109 276.875 501.188 275.953C500.281 275.031 498.883 274.57 496.992 274.57H491.344V284.812Z" fill="white"/>
</svg>
